<svg width="47" height="16" viewBox="0 0 47 16" fill="none" xmlns="http://www.w3.org/2000/svg">
<path d="M13.9994 12.68L9.68692 0.524902H7.27855L3.04845 12.3095C2.328 14.3473 1.98836 14.7178 0.917969 14.9134V15.4177H5.04514V14.9134C3.63511 14.6973 3.42927 14.2444 4.03651 12.3506L4.7055 10.3231H9.3164L10.078 12.5874C10.6338 14.2753 10.3765 14.7178 9.06939 14.9134V15.4177H15.9857V14.9134C14.9462 14.7178 14.586 14.3267 13.9994 12.68ZM4.93193 9.60262L6.98007 3.32438L9.07968 9.60262H4.93193Z" fill="#FD665E"/>
<path d="M20.0005 5.05347L15.4514 5.60925V6.08269L15.9763 6.24736C16.5424 6.44292 16.635 6.58701 16.635 7.256V13.8018C16.635 14.5223 16.4703 14.7487 15.4514 14.9134V15.4177H21.3385V14.9134C20.2064 14.7281 20.0211 14.512 20.0211 13.6989V8.3058C20.474 7.88382 21.5135 7.61623 22.5324 7.61623C23.1191 7.61623 23.716 7.70886 24.0145 7.82207C24.138 7.57506 24.2512 7.14279 24.2512 6.70022C24.2512 5.77392 23.8086 5.03289 22.8823 5.03289C21.8428 5.03289 20.9783 5.90772 19.9902 7.95587L20.0005 5.05347Z" fill="#FD665E"/>
<path d="M29.5628 15.6236C31.4154 15.6236 32.9592 14.9134 33.7209 13.8224V13.3181C33.2062 13.8224 32.3108 14.1621 31.3125 14.1621C29.2643 14.1621 27.6073 12.5462 27.6073 9.71584C27.6073 7.35892 28.8424 5.85626 30.7052 5.85626C31.261 5.85626 31.755 5.99006 32.1462 6.23707C32.1256 6.22678 32.1153 6.22678 32.0947 6.22678C31.3022 6.22678 30.6538 6.88548 30.6538 7.71915C30.6538 8.55282 31.3228 9.21152 32.1667 9.21152C32.9901 9.21152 33.6797 8.56311 33.6797 7.6574C33.6797 6.17532 32.2697 4.99172 29.7892 4.99172C26.5163 4.99172 24.1079 7.17366 24.1079 10.3231C24.1079 13.5857 26.5266 15.6236 29.5628 15.6236Z" fill="#FD665E"/>
<path d="M38.4458 0L33.8761 0.555779V1.02922L34.401 1.20419C34.9773 1.39974 35.0597 1.54383 35.0597 2.21282V13.7813C35.0597 14.5223 34.8744 14.7384 33.8761 14.9134V15.4177H39.475V14.9134C38.5796 14.7487 38.4458 14.5635 38.4458 13.843V7.36921C38.7546 6.79285 39.403 6.40175 40.2469 6.40175C41.41 6.40175 42.0892 7.09132 42.0892 8.47048V13.843C42.0892 14.5635 41.9349 14.759 41.06 14.9134V15.4177H46.659V14.9134C45.64 14.7384 45.4651 14.5223 45.4651 13.7813V8.27493C45.4651 6.05181 44.055 4.99172 41.9657 4.99172C40.2263 4.99172 38.9604 5.78422 38.4252 6.94723L38.4458 0Z" fill="#FD665E"/>
</svg>
