<svg width="52" height="11" viewBox="0 0 52 11" fill="none" xmlns="http://www.w3.org/2000/svg">
<path d="M5.17989 0.429917L0.630737 0.985696V1.45914L1.15564 1.62381C1.732 1.81936 1.81434 1.96345 1.81434 2.63245V9.1577C1.81434 9.89874 1.62908 10.1149 0.630737 10.2898V10.7942H6.22969V10.2898C5.33427 10.1355 5.20047 9.93991 5.20047 9.21945V2.74566C5.50924 2.17959 6.0959 1.7782 6.92956 1.7782C8.01024 1.7782 8.62778 2.45748 8.62778 3.82634V9.21945C8.62778 9.93991 8.50427 10.1355 7.60885 10.2898V10.7942H13.0431V10.2898C12.1477 10.1355 12.0139 9.93991 12.0139 9.21945V3.47641C12.0139 3.18823 11.9933 2.94121 11.9419 2.6942C12.2609 2.13842 12.8785 1.7782 13.7121 1.7782C14.8031 1.7782 15.4412 2.45748 15.4412 3.82634V9.21945C15.4412 9.93991 15.3074 10.1252 14.412 10.2898V10.7942H20.0109V10.2898C19.0023 10.1149 18.8273 9.89874 18.8273 9.1577V3.63079C18.8273 1.45914 17.4791 0.368164 15.4309 0.368164C13.7121 0.368164 12.3844 1.19154 11.8801 2.35456C11.5096 1.06803 10.2951 0.368164 8.67924 0.368164C6.92956 0.368164 5.67391 1.19154 5.17989 2.34427V0.429917Z" fill="#FD665E"/>
<path d="M26.0018 11C29.3159 11 31.7963 8.79747 31.7963 5.63777C31.7963 2.41631 29.3365 0.368164 26.043 0.368164C22.7392 0.368164 20.2588 2.5604 20.2588 5.72011C20.2588 8.95186 22.7186 11 26.0018 11ZM26.0739 10.3207C24.6947 10.3207 23.8405 8.55046 23.8405 5.60689C23.8405 2.76625 24.5815 1.04745 25.9812 1.04745C27.3501 1.04745 28.2044 2.80742 28.2044 5.75098C28.2044 8.59163 27.4633 10.3207 26.0739 10.3207Z" fill="#FD665E"/>
<path d="M32.7543 2.76625L35.842 10.8147H37.6946L40.6382 3.18823C41.2763 1.53118 41.5645 1.243 42.3878 1.07833V0.563716H38.9502V1.07833C40.1133 1.243 40.2471 1.57235 39.7633 3.10589L38.1372 7.98439L36.511 3.0853C36.0375 1.57235 36.1713 1.23271 37.3652 1.07833V0.563716H31.1796V1.07833C31.9927 1.25329 32.2706 1.54147 32.7543 2.76625Z" fill="#FD665E"/>
<path d="M41.5859 5.69952C41.5859 8.97244 44.0045 11 47.0716 11C48.986 11 50.5504 10.3104 51.3017 9.17829L51.2914 8.67397C50.7768 9.19887 49.9123 9.57968 48.9036 9.57968C46.8246 9.57968 45.2911 8.06673 45.0235 5.39076H51.4355C51.4561 5.21579 51.487 4.94819 51.487 4.6806C51.487 2.12813 49.7785 0.368164 46.9275 0.368164C43.7164 0.368164 41.5859 2.57069 41.5859 5.69952ZM44.972 4.50563C44.972 2.29281 45.6822 1.04745 46.9275 1.04745C48.0185 1.04745 48.5125 2.22076 48.5125 4.05277C48.5125 4.35124 48.5125 4.56738 48.5022 4.76293L44.9823 4.8041C44.972 4.70118 44.972 4.60855 44.972 4.50563Z" fill="#FD665E"/>
</svg>
